<?xml version="1.0" encoding="UTF-8"?>
<svg xmlns="http://www.w3.org/2000/svg" xmlns:xlink="http://www.w3.org/1999/xlink" width="250px" height="250px" viewBox="0 0 1875 1128" version="1.1">
<defs>
<linearGradient id="linear0" gradientUnits="userSpaceOnUse" x1="-0.02778" y1="0.32" x2="1" y2="0.67556" gradientTransform="matrix(1875,0,0,1125,0,1.5)">
<stop offset="0" style="stop-color:rgb(13.333333%,59.607843%,74.117647%);stop-opacity:1;"/>
<stop offset="1" style="stop-color:rgb(5.490196%,84.313725%,70.980392%);stop-opacity:1;"/>
</linearGradient>
</defs>
<g id="surface1">
<path style=" stroke:none;fill-rule:nonzero;fill:url(#linear0);" d="M 937.5 1.5 C 687.503906 1.5 531.246094 126.503906 468.75 376.5 C 562.5 251.496094 671.871094 204.621094 796.875 235.875 C 868.191406 253.703125 919.167969 305.449219 975.59375 362.714844 C 1067.511719 456.019531 1173.890625 564 1406.25 564 C 1656.246094 564 1812.503906 438.996094 1875 189 C 1781.25 314.003906 1671.878906 360.878906 1546.875 329.625 C 1475.558594 311.796875 1424.582031 260.050781 1368.15625 202.785156 C 1276.238281 109.480469 1169.859375 1.5 937.5 1.5 Z M 468.75 564 C 218.753906 564 62.496094 689.003906 0 939 C 93.75 813.996094 203.121094 767.121094 328.125 798.375 C 399.441406 816.203125 450.417969 867.949219 506.84375 925.214844 C 598.761719 1018.519531 705.140625 1126.5 937.5 1126.5 C 1187.496094 1126.5 1343.753906 1001.496094 1406.25 751.5 C 1312.5 876.503906 1203.128906 923.378906 1078.125 892.125 C 1006.808594 874.296875 955.832031 822.550781 899.40625 765.285156 C 807.488281 671.980469 701.109375 564 468.75 564 Z M 468.75 564 "/>
</g>
</svg>
