<?xml version="1.0" encoding="UTF-8"?>
<svg xmlns="http://www.w3.org/2000/svg" xmlns:xlink="http://www.w3.org/1999/xlink" width="250px" height="250px" viewBox="0 0 1875 1875" version="1.1">
<g id="surface1">
<rect x="0" y="0" width="1875" height="1875" style="fill:rgb(94.117647%,85.882353%,30.980392%);fill-opacity:1;stroke:none;"/>
<path style=" stroke:none;fill-rule:nonzero;fill:rgb(19.607843%,20%,18.823529%);fill-opacity:1;" d="M 1721.542969 1427.816406 C 1707.820312 1342.265625 1652.03125 1270.4375 1486.8125 1203.421875 C 1429.421875 1177.042969 1365.433594 1158.152344 1346.363281 1114.664062 C 1339.589844 1089.355469 1338.699219 1075.09375 1342.976562 1059.765625 C 1355.277344 1010.039062 1414.625 994.535156 1461.679688 1008.792969 C 1491.980469 1018.953125 1520.675781 1042.300781 1537.964844 1079.550781 C 1618.878906 1027.152344 1618.703125 1027.507812 1675.203125 991.507812 C 1654.527344 959.425781 1643.476562 944.628906 1629.929688 930.90625 C 1581.273438 876.546875 1514.972656 848.5625 1408.921875 850.703125 C 1390.566406 853.019531 1372.03125 855.511719 1353.671875 857.832031 C 1300.738281 871.199219 1250.296875 899.003906 1220.710938 936.253906 C 1131.949219 1036.957031 1157.261719 1213.226562 1265.269531 1285.765625 C 1371.671875 1365.613281 1527.980469 1383.792969 1547.945312 1458.472656 C 1567.371094 1549.90625 1480.753906 1579.492188 1394.664062 1568.976562 C 1331.214844 1555.789062 1295.925781 1523.527344 1257.78125 1464.890625 C 1187.5625 1505.527344 1187.5625 1505.527344 1115.378906 1547.054688 C 1132.488281 1584.484375 1150.488281 1601.414062 1179.183594 1633.855469 C 1314.996094 1771.628906 1654.882812 1764.855469 1715.839844 1556.324219 C 1718.335938 1549.191406 1734.734375 1501.425781 1721.542969 1427.816406 Z M 1019.308594 861.75 L 843.929688 861.75 C 843.929688 1013.25 843.21875 1163.675781 843.21875 1315.171875 C 843.21875 1411.597656 848.207031 1500 832.523438 1527.089844 C 806.859375 1580.378906 740.378906 1573.789062 710.078125 1563.449219 C 679.242188 1548.300781 663.558594 1526.734375 645.378906 1496.257812 C 640.390625 1487.523438 636.644531 1480.75 635.398438 1480.214844 C 587.8125 1509.269531 540.398438 1538.496094 492.8125 1567.550781 C 516.519531 1616.207031 551.449219 1658.449219 596.1875 1685.894531 C 663.023438 1725.996094 752.851562 1738.292969 846.78125 1716.726562 C 907.914062 1698.90625 960.671875 1662.011719 988.296875 1605.871094 C 1028.21875 1532.261719 1019.664062 1443.144531 1019.308594 1344.582031 C 1020.199219 1183.816406 1019.308594 1023.050781 1019.308594 861.75 Z M 1019.308594 861.75 "/>
</g>
</svg>
