<?xml version="1.0" encoding="UTF-8"?>
<svg xmlns="http://www.w3.org/2000/svg" xmlns:xlink="http://www.w3.org/1999/xlink" width="250px" height="250px" viewBox="0 0 1646 1875" version="1.1">
<g id="surface1">
<path style=" stroke:none;fill-rule:nonzero;fill:rgb(38.039216%,85.490196%,98.431373%);fill-opacity:1;" d="M 1646 937.667969 C 1646 828.660156 1509.449219 725.355469 1300.089844 661.292969 C 1348.40625 447.976562 1326.933594 278.261719 1232.320312 223.925781 C 1210.511719 211.179688 1185.011719 205.140625 1157.164062 205.140625 L 1157.164062 279.9375 C 1172.597656 279.9375 1185.011719 282.957031 1195.414062 288.65625 C 1241.042969 314.820312 1260.835938 414.433594 1245.402344 542.558594 C 1241.714844 574.089844 1235.675781 607.292969 1228.292969 641.167969 C 1162.535156 625.070312 1090.734375 612.660156 1015.246094 604.609375 C 969.953125 542.558594 922.980469 486.210938 875.675781 436.90625 C 985.050781 335.277344 1087.714844 279.601562 1157.5 279.601562 L 1157.5 204.804688 C 1065.238281 204.804688 944.453125 270.546875 822.328125 384.582031 C 700.203125 271.214844 579.421875 206.148438 487.15625 206.148438 L 487.15625 280.945312 C 556.605469 280.945312 659.609375 336.285156 768.984375 437.242188 C 722.011719 486.546875 675.042969 542.558594 630.417969 604.609375 C 554.59375 612.660156 482.796875 625.070312 417.035156 641.503906 C 409.320312 607.964844 403.617188 575.429688 399.589844 544.238281 C 383.820312 416.113281 403.28125 316.496094 448.574219 290 C 458.640625 283.960938 471.722656 281.277344 487.15625 281.277344 L 487.15625 206.484375 C 458.972656 206.484375 433.476562 212.519531 411.332031 225.265625 C 317.054688 279.601562 295.917969 448.980469 344.566406 661.628906 C 135.878906 726.027344 0 828.996094 0 937.667969 C 0 1046.675781 136.550781 1149.980469 345.910156 1214.042969 C 297.59375 1427.359375 319.066406 1597.074219 413.679688 1651.410156 C 435.488281 1664.15625 460.988281 1670.195312 489.171875 1670.195312 C 581.433594 1670.195312 702.21875 1604.453125 824.34375 1490.417969 C 946.464844 1603.785156 1067.25 1668.851562 1159.515625 1668.851562 C 1187.695312 1668.851562 1213.195312 1662.816406 1235.339844 1650.070312 C 1329.617188 1595.734375 1350.753906 1426.355469 1302.105469 1213.707031 C 1510.121094 1149.644531 1646 1046.339844 1646 937.667969 Z M 1209.167969 713.953125 C 1196.753906 757.21875 1181.320312 801.828125 1163.875 846.4375 C 1150.121094 819.605469 1135.691406 792.773438 1119.925781 765.941406 C 1104.492188 739.109375 1088.050781 712.945312 1071.609375 687.457031 C 1119.253906 694.5 1165.21875 703.21875 1209.167969 713.953125 Z M 1055.507812 1071.160156 C 1029.335938 1116.4375 1002.496094 1159.371094 974.648438 1199.285156 C 924.660156 1203.644531 873.996094 1205.992188 823 1205.992188 C 772.339844 1205.992188 721.675781 1203.644531 672.023438 1199.621094 C 644.175781 1159.707031 617 1117.109375 590.828125 1072.164062 C 565.332031 1028.226562 542.179688 983.617188 521.042969 938.675781 C 541.84375 893.730469 565.332031 848.785156 590.492188 804.847656 C 616.664062 759.566406 643.503906 716.636719 671.351562 676.722656 C 721.339844 672.363281 772.003906 670.015625 823 670.015625 C 873.660156 670.015625 924.324219 672.363281 973.976562 676.386719 C 1001.824219 716.300781 1029 758.898438 1055.171875 803.839844 C 1080.667969 847.777344 1103.820312 892.386719 1124.957031 937.332031 C 1103.820312 982.277344 1080.667969 1027.222656 1055.507812 1071.160156 Z M 1163.875 1027.554688 C 1181.992188 1072.5 1197.425781 1117.445312 1210.175781 1161.046875 C 1166.222656 1171.78125 1119.925781 1180.835938 1071.945312 1187.878906 C 1088.386719 1162.054688 1104.828125 1135.558594 1120.257812 1108.390625 C 1135.691406 1081.558594 1150.121094 1054.390625 1163.875 1027.554688 Z M 823.671875 1385.433594 C 792.46875 1353.234375 761.265625 1317.347656 730.398438 1278.105469 C 760.59375 1279.445312 791.460938 1280.453125 822.664062 1280.453125 C 854.203125 1280.453125 885.40625 1279.78125 915.9375 1278.105469 C 885.738281 1317.347656 854.539062 1353.234375 823.671875 1385.433594 Z M 574.054688 1187.878906 C 526.410156 1180.835938 480.445312 1172.117188 436.496094 1161.382812 C 448.910156 1118.117188 464.34375 1073.507812 481.789062 1028.898438 C 495.542969 1055.730469 509.972656 1082.5625 525.742188 1109.394531 C 541.507812 1136.226562 557.613281 1162.390625 574.054688 1187.878906 Z M 821.992188 489.902344 C 853.195312 522.101562 884.398438 557.988281 915.265625 597.230469 C 885.070312 595.890625 854.203125 594.882812 823 594.882812 C 791.460938 594.882812 760.261719 595.554688 729.730469 597.230469 C 759.925781 557.988281 791.125 522.101562 821.992188 489.902344 Z M 573.71875 687.457031 C 557.277344 713.28125 540.839844 739.777344 525.40625 766.945312 C 509.972656 793.777344 495.542969 820.609375 481.789062 847.445312 C 463.671875 802.5 448.238281 757.554688 435.488281 713.953125 C 479.441406 703.554688 525.742188 694.5 573.71875 687.457031 Z M 270.082031 1107.382812 C 151.3125 1056.738281 74.484375 990.328125 74.484375 937.667969 C 74.484375 885.007812 151.3125 818.261719 270.082031 767.953125 C 298.9375 755.542969 330.476562 744.472656 363.019531 734.078125 C 382.144531 799.816406 407.304688 868.238281 438.507812 938.339844 C 407.640625 1008.101562 382.8125 1076.191406 364.027344 1141.59375 C 330.808594 1131.195312 299.273438 1119.792969 270.082031 1107.382812 Z M 450.585938 1586.675781 C 404.957031 1560.515625 385.164062 1460.902344 400.597656 1332.777344 C 404.285156 1301.246094 410.324219 1268.042969 417.707031 1234.167969 C 483.464844 1250.265625 555.265625 1262.675781 630.753906 1270.726562 C 676.046875 1332.777344 723.019531 1389.125 770.324219 1438.429688 C 660.949219 1540.054688 558.285156 1595.734375 488.5 1595.734375 C 473.402344 1595.398438 460.652344 1592.378906 450.585938 1586.675781 Z M 1246.410156 1331.097656 C 1262.179688 1459.222656 1242.71875 1558.839844 1197.425781 1585.335938 C 1187.359375 1591.375 1174.277344 1594.054688 1158.84375 1594.054688 C 1089.394531 1594.054688 986.390625 1538.714844 877.015625 1437.757812 C 923.988281 1388.453125 970.957031 1332.441406 1015.582031 1270.390625 C 1091.40625 1262.339844 1163.203125 1249.929688 1228.964844 1233.496094 C 1236.679688 1267.371094 1242.71875 1299.90625 1246.410156 1331.097656 Z M 1375.582031 1107.382812 C 1346.726562 1119.792969 1315.191406 1130.863281 1282.644531 1141.257812 C 1263.519531 1075.519531 1238.359375 1007.097656 1207.15625 936.996094 C 1238.023438 867.234375 1262.851562 799.144531 1281.640625 733.742188 C 1314.855469 744.136719 1346.390625 755.542969 1375.917969 767.953125 C 1494.6875 818.597656 1571.515625 885.007812 1571.515625 937.667969 C 1571.183594 990.328125 1494.351562 1057.070312 1375.582031 1107.382812 Z M 1375.582031 1107.382812 "/>
<path style=" stroke:none;fill-rule:nonzero;fill:rgb(38.039216%,85.490196%,98.431373%);fill-opacity:1;" d="M 975.992188 937.667969 C 975.992188 1022.320312 907.34375 1090.949219 822.664062 1090.949219 C 737.984375 1090.949219 669.335938 1022.320312 669.335938 937.667969 C 669.335938 853.011719 737.984375 784.386719 822.664062 784.386719 C 907.34375 784.386719 975.992188 853.011719 975.992188 937.667969 Z M 975.992188 937.667969 "/>
</g>
</svg>
