<?xml version="1.0" encoding="UTF-8"?>
<svg xmlns="http://www.w3.org/2000/svg" xmlns:xlink="http://www.w3.org/1999/xlink" width="250px" height="250px" viewBox="0 0 1875 1875" version="1.1">
<g id="surface1">
<path style=" stroke:none;fill-rule:nonzero;fill:rgb(87.058824%,29.803922%,21.176471%);fill-opacity:1;" d="M 1839.640625 853.960938 L 1020.996094 35.359375 C 973.878906 -11.785156 897.414062 -11.785156 850.238281 35.359375 L 680.242188 205.355469 L 895.890625 421.003906 C 946.003906 404.070312 1003.46875 415.429688 1043.414062 455.375 C 1083.550781 495.578125 1094.832031 553.535156 1077.488281 603.808594 L 1285.3125 811.640625 C 1335.59375 794.320312 1393.609375 805.523438 1433.765625 845.75 C 1489.894531 901.851562 1489.894531 992.78125 1433.765625 1048.921875 C 1377.625 1105.070312 1286.695312 1105.070312 1230.527344 1048.921875 C 1188.3125 1006.664062 1177.882812 944.664062 1199.253906 892.652344 L 1005.441406 698.839844 L 1005.417969 1208.875 C 1019.46875 1215.824219 1032.300781 1225 1043.414062 1236.050781 C 1099.542969 1292.152344 1099.542969 1383.089844 1043.414062 1439.273438 C 987.277344 1495.394531 896.300781 1495.394531 840.242188 1439.273438 C 784.117188 1383.089844 784.117188 1292.160156 840.242188 1236.058594 C 853.691406 1222.601562 869.675781 1211.941406 887.269531 1204.703125 L 887.269531 689.914062 C 869.652344 682.71875 853.65625 672.054688 840.242188 658.558594 C 797.71875 616.089844 787.492188 553.695312 809.28125 501.480469 L 596.703125 288.882812 L 35.375 850.171875 C -11.792969 897.363281 -11.792969 973.835938 35.375 1020.988281 L 854.03125 1839.601562 C 901.164062 1886.753906 977.613281 1886.753906 1024.804688 1839.601562 L 1839.632812 1024.789062 C 1886.785156 977.621094 1886.785156 901.105469 1839.632812 853.960938 "/>
</g>
</svg>
