<?xml version="1.0" encoding="UTF-8"?>
<svg xmlns="http://www.w3.org/2000/svg" xmlns:xlink="http://www.w3.org/1999/xlink" width="250px" height="250px" viewBox="0 0 1874 1406" version="1.1">
<g id="surface1">
<path style=" stroke:none;fill-rule:nonzero;fill:rgb(81.176471%,39.215686%,60.392157%);fill-opacity:1;" d="M 1612.664062 807.71875 C 1547.148438 808.085938 1490.414062 823.828125 1442.832031 847.265625 C 1425.265625 812.480469 1407.695312 782.085938 1404.773438 759.390625 C 1401.476562 733.027344 1397.453125 716.914062 1401.476562 685.429688 C 1405.5 653.9375 1423.800781 609.265625 1423.800781 605.605469 C 1423.429688 602.308594 1419.769531 586.199219 1382.074219 585.832031 C 1344.378906 585.46875 1311.800781 593.15625 1308.140625 603.042969 C 1304.480469 612.929688 1297.160156 635.628906 1292.402344 659.0625 C 1285.8125 693.480469 1217 815.40625 1177.839844 879.480469 C 1165.027344 854.585938 1154.046875 832.617188 1151.847656 815.035156 C 1148.558594 788.679688 1144.527344 772.5625 1148.558594 741.078125 C 1152.582031 709.585938 1170.882812 664.921875 1170.882812 661.257812 C 1170.519531 657.964844 1166.859375 641.855469 1129.160156 641.488281 C 1091.457031 641.121094 1058.886719 648.808594 1055.226562 658.695312 C 1051.566406 668.582031 1047.539062 692.015625 1039.488281 714.714844 C 1031.796875 737.417969 940.292969 940.996094 916.503906 994.085938 C 904.425781 1021.179688 893.8125 1042.785156 886.125 1057.429688 C 878.4375 1072.074219 885.757812 1058.527344 885.027344 1059.992188 C 878.4375 1072.441406 874.777344 1079.398438 874.777344 1079.398438 L 874.777344 1079.769531 C 869.652344 1088.921875 864.164062 1097.707031 861.597656 1097.707031 C 859.765625 1097.707031 856.105469 1073.171875 862.328125 1039.492188 C 875.871094 968.820312 908.8125 858.617188 908.449219 854.589844 C 908.449219 852.757812 914.667969 833.347656 887.21875 823.464844 C 860.5 813.578125 850.984375 830.054688 848.785156 830.054688 C 846.589844 830.054688 844.761719 835.914062 844.761719 835.914062 C 844.761719 835.914062 874.40625 711.792969 788.027344 711.792969 C 733.859375 711.792969 659.191406 770.746094 622.222656 824.566406 C 598.796875 837.382812 549.019531 864.472656 496.3125 893.402344 C 476.183594 904.386719 455.320312 916.105469 435.554688 926.722656 L 431.53125 922.320312 C 326.851562 810.648438 133.230469 731.558594 141.28125 581.441406 C 144.210938 526.882812 163.242188 382.988281 513.15625 208.703125 C 799.746094 65.90625 1029.238281 105.082031 1069.132812 192.226562 C 1125.863281 316.714844 946.515625 548.121094 648.582031 581.441406 C 535.117188 594.253906 475.453125 550.316406 460.453125 533.839844 C 444.710938 516.632812 442.515625 515.898438 436.660156 519.195312 C 427.144531 524.320312 433 539.699219 436.660156 548.851562 C 445.445312 571.917969 482.046875 612.929688 544.269531 633.433594 C 598.800781 651.375 732.035156 661.257812 893.082031 599.015625 C 1073.527344 529.082031 1214.445312 335.023438 1173.082031 172.820312 C 1130.992188 7.6875 857.210938 -46.5 598.4375 45.402344 C 444.34375 100.324219 277.441406 186.003906 157.386719 298.410156 C 14.640625 431.6875 -8.050781 548.121094 1.464844 596.453125 C 34.773438 768.90625 272.316406 881.3125 367.480469 964.429688 C 362.722656 966.988281 358.328125 969.550781 354.304688 971.75 C 306.722656 995.179688 125.542969 1090.015625 80.15625 1190.335938 C 28.914062 1303.839844 88.210938 1385.496094 127.738281 1396.480469 C 249.988281 1430.53125 375.164062 1369.386719 442.878906 1268.695312 C 510.222656 1168.003906 502.171875 1037.292969 471.0625 977.609375 L 469.960938 975.414062 L 507.292969 953.445312 C 531.453125 939.164062 555.246094 925.984375 576.105469 914.628906 C 564.394531 946.484375 555.972656 984.195312 551.585938 1039.117188 C 546.460938 1103.5625 572.8125 1187.042969 607.585938 1219.996094 C 622.957031 1234.269531 641.257812 1234.640625 652.605469 1234.640625 C 692.867188 1234.640625 711.167969 1201.316406 731.300781 1161.410156 C 756.1875 1112.714844 778.148438 1056.328125 778.148438 1056.328125 C 778.148438 1056.328125 750.699219 1209.011719 825.730469 1209.011719 C 853.183594 1209.011719 880.632812 1173.492188 893.078125 1155.1875 L 893.078125 1155.550781 C 893.078125 1155.550781 893.808594 1154.453125 895.273438 1151.890625 C 896.808594 1149.621094 898.273438 1147.300781 899.667969 1144.9375 L 899.667969 1144.207031 C 910.648438 1125.167969 935.171875 1081.59375 971.773438 1009.464844 C 1018.984375 916.464844 1064.375 800.027344 1064.375 800.027344 C 1064.375 800.027344 1068.765625 828.589844 1082.308594 875.453125 C 1090.355469 903.285156 1107.925781 933.671875 1121.46875 963.328125 C 1110.488281 978.707031 1103.898438 987.5 1103.898438 987.5 L 1104.265625 987.863281 C 1095.484375 999.582031 1085.597656 1012.035156 1075.355469 1024.480469 C 1038.019531 1069.148438 993.367188 1120.046875 987.511719 1134.691406 C 980.554688 1151.898438 982.019531 1164.714844 995.5625 1174.96875 C 1005.445312 1182.292969 1023.015625 1183.753906 1041.679688 1182.292969 C 1075.355469 1180.089844 1098.777344 1171.675781 1110.492188 1166.542969 C 1128.792969 1159.953125 1149.65625 1150.066406 1169.785156 1135.421875 C 1206.386719 1108.332031 1228.714844 1069.886719 1226.519531 1018.625 C 1225.421875 990.433594 1216.269531 962.605469 1204.921875 936.242188 C 1208.21875 931.480469 1211.515625 926.71875 1214.804688 921.597656 C 1272.636719 837.011719 1317.289062 744.015625 1317.289062 744.015625 C 1317.289062 744.015625 1321.683594 772.574219 1335.226562 819.441406 C 1342.175781 843.242188 1356.085938 869.242188 1368.53125 894.871094 C 1314.363281 939.175781 1280.324219 990.433594 1268.609375 1024.121094 C 1247.015625 1086.367188 1263.851562 1114.558594 1295.695312 1121.148438 C 1309.964844 1124.078125 1330.46875 1117.488281 1345.835938 1110.898438 C 1364.867188 1104.671875 1387.925781 1094.050781 1409.160156 1078.308594 C 1445.761719 1051.214844 1480.898438 1013.503906 1479.070312 962.609375 C 1477.972656 939.175781 1471.75 916.109375 1463.332031 894.140625 C 1509.449219 875.097656 1569.105469 864.113281 1644.875 873.269531 C 1807.75 892.308594 1839.960938 994.097656 1833.742188 1036.570312 C 1827.519531 1079.046875 1793.480469 1102.476562 1782.128906 1109.800781 C 1770.785156 1116.753906 1767.125 1119.324219 1768.222656 1124.445312 C 1769.6875 1132.136719 1774.808594 1131.769531 1784.691406 1130.308594 C 1798.234375 1128.105469 1870.339844 1095.523438 1873.269531 1017.171875 C 1877.660156 916.464844 1782.128906 806.621094 1612.664062 807.71875 Z M 356.5 1231.347656 C 302.695312 1290.296875 226.929688 1312.632812 194.71875 1293.59375 C 159.949219 1273.457031 173.488281 1186.679688 239.742188 1124.066406 C 280 1085.988281 332.34375 1050.839844 366.746094 1029.234375 C 374.433594 1024.476562 386.148438 1017.523438 400.054688 1009.097656 C 402.25 1007.636719 403.714844 1006.902344 403.714844 1006.902344 C 406.277344 1005.4375 409.207031 1003.605469 412.132812 1001.773438 C 436.65625 1091.113281 413.230469 1169.46875 356.5 1231.347656 Z M 749.964844 963.695312 C 731.300781 1009.464844 691.769531 1126.996094 667.976562 1120.40625 C 647.476562 1114.914062 635.039062 1025.941406 663.949219 938.066406 C 678.589844 893.757812 709.699219 841.035156 728 820.527344 C 757.652344 787.574219 789.859375 776.589844 797.914062 790.140625 C 807.429688 807.71875 761.679688 935.136719 749.964844 963.695312 Z M 1074.621094 1118.941406 C 1066.570312 1122.972656 1059.25 1125.898438 1055.953125 1123.707031 C 1053.394531 1122.242188 1059.246094 1116.75 1059.246094 1116.75 C 1059.246094 1116.75 1099.875 1073.175781 1115.976562 1053.039062 C 1125.128906 1041.324219 1136.109375 1027.777344 1147.820312 1012.398438 L 1147.820312 1016.789062 C 1147.824219 1069.511719 1097.316406 1104.660156 1074.621094 1118.941406 Z M 1324.972656 1061.824219 C 1319.117188 1057.429688 1319.851562 1043.882812 1339.613281 1001.410156 C 1347.304688 984.566406 1364.867188 956.371094 1395.246094 929.644531 C 1398.90625 940.628906 1401.109375 951.242188 1400.738281 961.132812 C 1400.375 1027.039062 1353.527344 1051.570312 1324.972656 1061.824219 Z M 1324.972656 1061.824219 "/>
</g>
</svg>
