<?xml version="1.0" encoding="UTF-8"?>
<svg xmlns="http://www.w3.org/2000/svg" xmlns:xlink="http://www.w3.org/1999/xlink" width="250px" height="250px" viewBox="0 0 1875 1875" version="1.1">
<g id="surface1">
<path style=" stroke:none;fill-rule:nonzero;fill:rgb(33.72549%,23.921569%,48.627451%);fill-opacity:1;" d="M 0 1633.234375 C 0 1766.769531 108.246094 1875 241.765625 1875 L 1633.226562 1875 C 1766.769531 1875 1875 1766.753906 1875 1633.234375 L 1875 241.773438 C 1875 108.230469 1766.753906 0 1633.234375 0 L 241.773438 0 C 108.230469 0 0 108.246094 0 241.765625 Z M 0 1633.234375 "/>
<path style=" stroke:none;fill-rule:nonzero;fill:rgb(100%,100%,100%);fill-opacity:1;" d="M 777.523438 829.378906 L 777.523438 563.855469 L 1011.246094 563.855469 C 1033.511719 563.855469 1054.972656 565.707031 1075.640625 569.421875 C 1096.3125 573.128906 1114.597656 579.75 1130.5 589.292969 C 1146.394531 598.835938 1159.117188 612.085938 1168.660156 629.039062 C 1178.195312 646.003906 1182.972656 667.734375 1182.972656 694.226562 C 1182.972656 741.929688 1168.660156 776.382812 1140.035156 797.578125 C 1111.421875 818.78125 1074.851562 829.378906 1030.328125 829.378906 Z M 527.894531 369.875 L 527.894531 1505.125 L 1078.03125 1505.125 C 1128.910156 1505.125 1178.464844 1498.769531 1226.695312 1486.046875 C 1274.925781 1473.324219 1317.855469 1453.71875 1355.484375 1427.21875 C 1393.109375 1400.71875 1423.058594 1366.53125 1445.316406 1324.664062 C 1467.582031 1282.792969 1478.707031 1233.238281 1478.707031 1176 C 1478.707031 1104.976562 1461.480469 1044.292969 1427.035156 993.949219 C 1392.582031 943.59375 1340.375 908.351562 1270.414062 888.207031 C 1321.296875 863.832031 1359.726562 832.558594 1385.699219 794.398438 C 1411.664062 756.242188 1424.648438 708.546875 1424.648438 651.296875 C 1424.648438 598.300781 1415.902344 553.785156 1398.414062 517.742188 C 1380.921875 481.707031 1356.277344 452.820312 1324.476562 431.089844 C 1292.679688 409.359375 1254.523438 393.71875 1209.996094 384.183594 C 1165.480469 374.640625 1116.1875 369.871094 1062.128906 369.871094 L 527.894531 369.871094 Z M 777.523438 1311.144531 L 777.523438 999.507812 L 1049.40625 999.507812 C 1103.46875 999.507812 1146.929688 1011.957031 1179.792969 1036.875 C 1212.648438 1061.785156 1229.085938 1103.386719 1229.085938 1161.6875 C 1229.085938 1191.371094 1224.046875 1215.746094 1213.976562 1234.828125 C 1203.902344 1253.90625 1190.390625 1269.015625 1173.429688 1280.140625 C 1156.472656 1291.273438 1136.859375 1299.222656 1114.597656 1303.996094 C 1092.335938 1308.757812 1069.019531 1311.144531 1044.640625 1311.144531 Z M 777.523438 1311.144531 "/>
</g>
</svg>
