<?xml version="1.0" encoding="UTF-8"?>
<svg xmlns="http://www.w3.org/2000/svg" xmlns:xlink="http://www.w3.org/1999/xlink" width="250px" height="250px" viewBox="0 0 1875 1875" version="1.1">
<g id="surface1">
<path style=" stroke:none;fill-rule:nonzero;fill:rgb(0%,0%,0%);fill-opacity:1;" d="M 0 937.5 C 0 678.710938 91.550781 457.761719 274.660156 274.65625 C 457.761719 91.550781 678.710938 0 937.5 0 C 1196.289062 0 1417.234375 91.550781 1600.34375 274.65625 C 1783.445312 457.761719 1875 678.710938 1875 937.5 C 1875 1196.289062 1783.449219 1417.234375 1600.34375 1600.339844 C 1417.238281 1783.445312 1196.289062 1875 937.5 1875 C 678.710938 1875 457.761719 1783.449219 274.660156 1600.339844 C 91.550781 1417.238281 0 1196.285156 0 937.5 Z M 102.539062 937.5 C 102.539062 1166.992188 184.324219 1363.523438 347.898438 1527.101562 C 511.472656 1690.671875 708.007812 1772.460938 937.5 1772.460938 C 1166.992188 1772.460938 1363.527344 1690.675781 1527.101562 1527.101562 C 1690.675781 1363.527344 1772.460938 1166.992188 1772.460938 937.5 C 1772.460938 708.007812 1690.675781 511.472656 1527.101562 347.898438 C 1363.527344 184.324219 1166.992188 102.539062 937.5 102.539062 C 708.007812 102.539062 511.476562 184.324219 347.898438 347.898438 C 184.324219 511.472656 102.539062 708.007812 102.539062 937.5 Z M 366.210938 1138.914062 C 361.328125 1134.03125 361.328125 1129.148438 366.210938 1124.265625 C 375.976562 1114.5 388.183594 1110.839844 402.832031 1113.28125 C 417.480469 1115.722656 426.023438 1118.164062 428.464844 1120.605469 C 445.554688 1127.929688 464.476562 1144.40625 485.226562 1170.042969 C 505.976562 1195.679688 522.457031 1213.378906 534.667969 1223.144531 C 593.261719 1271.972656 653.074219 1275.632812 714.109375 1234.128906 C 718.992188 1217.039062 726.925781 1202.390625 737.910156 1190.183594 C 748.894531 1177.976562 759.273438 1169.433594 769.039062 1164.546875 C 778.808594 1159.664062 795.898438 1152.339844 820.3125 1142.574219 C 739.742188 1135.25 674.4375 1121.210938 624.386719 1100.460938 C 574.339844 1079.707031 534.664062 1053.464844 505.367188 1021.726562 C 466.304688 977.78125 442.5 920.40625 433.957031 849.605469 C 425.410156 778.804688 430.902344 714.109375 450.4375 655.515625 C 465.085938 618.894531 485.835938 585.9375 512.691406 556.636719 C 493.160156 495.601562 496.820312 426.023438 523.675781 347.898438 C 601.800781 352.78125 672.601562 379.636719 736.078125 428.464844 C 858.148438 396.726562 985.101562 395.503906 1116.9375 424.800781 C 1134.027344 412.59375 1160.273438 397.335938 1195.671875 379.023438 C 1231.070312 360.714844 1275.628906 350.335938 1329.339844 347.894531 C 1339.105469 374.75 1345.820312 406.488281 1349.480469 443.109375 C 1353.144531 479.730469 1351.3125 513.910156 1343.988281 545.648438 C 1400.140625 604.242188 1429.4375 682.367188 1431.878906 780.023438 C 1431.878906 858.148438 1418.453125 922.847656 1391.597656 974.117188 C 1364.742188 1025.386719 1317.132812 1068.109375 1248.773438 1102.289062 C 1202.386719 1124.261719 1141.351562 1137.6875 1065.667969 1142.570312 C 1099.851562 1159.660156 1124.875 1177.363281 1140.742188 1195.671875 C 1156.613281 1213.984375 1166.988281 1242.667969 1171.875 1281.730469 L 1171.875 1397.089844 L 1175.535156 1508.785156 C 1182.859375 1520.992188 1191.40625 1531.367188 1201.171875 1539.914062 C 1210.9375 1548.460938 1219.480469 1554.5625 1226.804688 1558.226562 C 1234.128906 1561.886719 1236.570312 1567.382812 1234.128906 1574.707031 C 1231.6875 1582.03125 1221.921875 1585.691406 1204.832031 1585.691406 C 1163.328125 1585.691406 1130.371094 1571.042969 1105.957031 1541.746094 C 1098.632812 1529.539062 1094.96875 1514.890625 1094.96875 1497.800781 L 1094.96875 1322.019531 C 1094.96875 1302.488281 1090.085938 1288.449219 1080.320312 1279.902344 C 1070.554688 1271.355469 1060.789062 1265.863281 1051.023438 1263.421875 L 1051.023438 1494.136719 C 1051.023438 1535.640625 1055.90625 1562.496094 1065.671875 1574.703125 C 1075.4375 1586.910156 1081.542969 1599.117188 1083.984375 1611.324219 C 1086.425781 1613.765625 1084.59375 1615.59375 1078.492188 1616.816406 C 1072.390625 1618.035156 1062.011719 1616.207031 1047.363281 1611.324219 C 1015.625 1604 993.652344 1587.519531 981.445312 1561.882812 C 969.238281 1536.25 963.132812 1508.78125 963.132812 1479.484375 L 963.132812 1252.441406 L 915.527344 1252.441406 L 915.527344 1479.492188 C 915.527344 1508.789062 909.421875 1536.867188 897.214844 1563.71875 C 880.125 1597.902344 848.386719 1616.210938 802 1618.652344 C 794.675781 1616.210938 791.015625 1613.769531 791.015625 1611.328125 C 793.457031 1608.886719 800.78125 1596.679688 812.988281 1574.707031 C 815.429688 1569.824219 818.480469 1560.058594 822.144531 1545.410156 C 825.808594 1530.761719 827.636719 1513.671875 827.636719 1494.140625 L 827.636719 1263.425781 C 817.871094 1265.867188 808.714844 1271.359375 800.171875 1279.90625 C 791.625 1288.453125 787.351562 1302.492188 787.351562 1322.023438 L 787.351562 1497.804688 C 787.351562 1514.890625 783.691406 1529.542969 776.367188 1541.75 C 754.394531 1571.046875 721.433594 1585.695312 677.492188 1585.695312 C 660.402344 1585.695312 650.636719 1582.035156 648.195312 1574.710938 C 645.75 1569.828125 646.363281 1565.554688 650.027344 1561.890625 C 653.691406 1558.230469 659.183594 1553.957031 666.507812 1549.074219 C 673.832031 1544.191406 678.714844 1540.527344 681.15625 1538.085938 C 690.921875 1530.761719 698.242188 1520.996094 703.128906 1508.789062 C 710.453125 1499.023438 712.28125 1473.390625 708.621094 1431.886719 C 704.957031 1390.382812 704.347656 1363.527344 706.789062 1351.320312 C 643.308594 1373.292969 578.613281 1362.304688 512.695312 1318.359375 C 493.164062 1298.828125 473.632812 1270.75 454.101562 1234.132812 C 439.453125 1207.273438 410.15625 1175.535156 366.210938 1138.914062 Z M 366.210938 1138.914062 "/>
</g>
</svg>
